<svg xmlns="http://www.w3.org/2000/svg" viewBox="0 0 800 500" width="100%" height="100%">
  <defs>
    <radialGradient id="bedrock-grad" cx="48%" cy="50%" r="55%">
      <stop offset="0%" stop-color="#2D3A4B"/>
      <stop offset="60%" stop-color="#1A2433"/>
      <stop offset="100%" stop-color="#0B1017"/>
    </radialGradient>
  </defs>

  <rect width="800" height="500" fill="#0A0E16"/>
  <rect width="800" height="500" fill="url(#bedrock-grad)"/>

  <!-- High Coherence Geological Ridges (Interferometric Reference Target) -->
  <g stroke="#485D77" stroke-width="2.5" fill="none" opacity="0.7">
    <path d="M 80 140 Q 220 90 400 130 T 720 110"/>
    <path d="M 60 260 Q 240 210 420 250 T 740 220"/>
    <path d="M 90 380 Q 280 320 460 370 T 730 340"/>
  </g>

  <!-- Stable Geodetic Marker Point -->
  <circle cx="410" cy="245" r="6" fill="#10B981" stroke="#FFFFFF" stroke-width="1.5"/>
  <circle cx="410" cy="245" r="14" fill="none" stroke="#10B981" stroke-width="1" stroke-dasharray="3 2"/>

  <!-- Reticle -->
  <g stroke="#1E6BFF" stroke-width="1" opacity="0.6">
    <circle cx="400" cy="250" r="4" fill="none"/>
    <line x1="390" y1="250" x2="410" y2="250"/>
    <line x1="400" y1="240" x2="400" y2="260"/>
  </g>

  <rect x="430" y="16" width="350" height="24" fill="#090D14" opacity="0.85" rx="2" stroke="#1E2838" stroke-width="0.8"/>
  <text x="440" y="32" fill="#FCA5A5" font-family="monospace" font-size="11" font-weight="bold" letter-spacing="1">
    SYNTHETIC VISUAL FIXTURE // NOT NISAR IMAGERY
  </text>

  <rect x="20" y="458" width="310" height="24" fill="#090D14" opacity="0.85" rx="2" stroke="#1E2838" stroke-width="0.8"/>
  <text x="28" y="474" fill="#60A5FA" font-family="monospace" font-size="10" font-weight="bold">
    BEFORE PASS &bull; 28 JUL 2026 &bull; GUNW INTERFEROGRAM
  </text>
</svg>
